<?xml version="1.0" standalone="no"?>
<!DOCTYPE svg PUBLIC "-//W3C//DTD SVG 20010904//EN"
 "http://www.w3.org/TR/2001/REC-SVG-20010904/DTD/svg10.dtd">
<svg version="1.0" xmlns="http://www.w3.org/2000/svg"
 width="512.000000pt" height="512.000000pt" viewBox="0 0 512.000000 512.000000"
 preserveAspectRatio="xMidYMid meet">
<metadata>
Created by potrace 1.11, written by Peter Selinger 2001-2013
</metadata>
<g transform="translate(0.000000,512.000000) scale(0.100000,-0.100000)"
fill="#000000" stroke="none">
<path d="M845 4950 c-119 -17 -260 -75 -355 -145 -49 -36 -153 -142 -187 -191
-40 -56 -92 -170 -115 -250 l-23 -79 0 -1725 0 -1725 23 -79 c23 -80 75 -194
115 -250 34 -49 138 -155 187 -191 66 -49 176 -101 266 -127 l79 -23 1725 0
1725 0 79 23 c90 26 200 78 266 127 49 36 153 142 187 191 40 56 92 170 115
250 l23 79 0 1725 0 1725 -23 79 c-26 90 -78 200 -127 266 -36 49 -142 153
-191 187 -53 37 -167 91 -245 115 l-74 23 -1700 1 c-935 1 -1723 -2 -1750 -6z
m3155 -154 c104 -19 178 -49 265 -107 98 -66 166 -144 220 -254 79 -160 75
-67 75 -1661 1 -1557 4 -1465 -59 -1599 -82 -175 -246 -310 -441 -362 -61 -17
-161 -18 -1500 -18 -1346 0 -1439 1 -1500 18 -196 54 -349 177 -435 352 -75
152 -69 31 -73 1585 -2 1000 0 1417 8 1474 42 295 254 517 545 571 105 20
2787 20 2895 1z"/>
<path d="M3333 4066 c-199 -38 -361 -129 -459 -259 -95 -125 -135 -256 -135
-443 0 -262 76 -413 277 -544 104 -68 218 -121 449 -210 244 -93 319 -142 369
-238 24 -46 36 -136 26 -196 -17 -106 -72 -174 -180 -225 -52 -24 -64 -26
-205 -26 -132 1 -162 4 -250 28 -110 30 -286 111 -392 179 -37 24 -74 47 -80
52 -10 6 -13 -46 -13 -243 l0 -251 52 -26 c79 -40 301 -110 413 -130 136 -24
425 -25 546 -1 320 63 507 215 581 472 30 107 33 363 5 465 -42 155 -119 271
-240 363 -105 80 -178 117 -412 207 -337 130 -403 168 -445 256 -28 56 -30
150 -5 212 25 62 100 125 177 148 96 29 273 25 401 -9 104 -28 247 -91 340
-150 32 -21 60 -37 62 -37 3 0 5 106 5 235 l0 236 -42 18 c-81 34 -202 73
-308 98 -132 31 -420 41 -537 19z"/>
<path d="M930 2801 l0 -1241 240 0 240 0 2 463 3 462 210 6 c300 9 431 34 591
108 110 52 213 152 262 255 61 126 76 208 76 411 -1 153 -4 192 -22 260 -77
284 -245 422 -592 487 -92 18 -162 21 -557 25 l-453 5 0 -1241z m808 819 c236
-30 322 -138 310 -391 -4 -85 -9 -107 -37 -164 -62 -126 -137 -155 -413 -163
l-188 -4 0 359 c0 198 3 363 7 366 10 11 229 8 321 -3z"/>
</g>
</svg>
